<svg width="85" height="85" viewBox="0 0 85 85" fill="none" xmlns="http://www.w3.org/2000/svg">
<path d="M74.2262 54.276C74.9487 52.5548 72.884 51.0885 71.1521 51.8535C67.6898 53.3715 63.9498 54.153 60.1694 54.1485C45.3475 54.1485 33.3342 42.376 33.3342 27.8516C33.3326 22.9482 34.7256 18.1454 37.3504 14.0037C38.3562 12.417 37.1485 10.2212 35.3069 10.6887C21.1083 14.3118 10.625 26.9627 10.625 42.0112C10.625 59.886 25.4115 74.375 43.6546 74.375C57.4671 74.375 69.2962 66.0698 74.2262 54.276Z" stroke="white" stroke-width="2"/>
<path d="M55.2891 10.9898C53.412 9.73604 51.1736 11.9744 52.4238 13.8515L54.6551 17.1983C55.5611 18.555 56.0447 20.1498 56.0447 21.7813C56.0447 23.4127 55.5611 25.0075 54.6551 26.3642L52.4238 29.711C51.1736 31.5881 53.4155 33.8265 55.2926 32.5727L58.6359 30.3415C59.9926 29.4354 61.5874 28.9519 63.2188 28.9519C64.8503 28.9519 66.4451 29.4354 67.8018 30.3415L71.1486 32.5727C73.0257 33.8265 75.264 31.5881 74.0103 29.711L71.7791 26.3642C70.873 25.0075 70.3895 23.4127 70.3895 21.7813C70.3895 20.1498 70.873 18.555 71.7791 17.1983L74.0103 13.8515C75.264 11.9744 73.0257 9.73604 71.1451 10.9898L67.8018 13.221C66.4451 14.1271 64.8503 14.6106 63.2188 14.6106C61.5874 14.6106 59.9926 14.1271 58.6359 13.221L55.2891 10.9898Z" stroke="white" stroke-width="2"/>
</svg>
